<mxfile host="app.diagrams.net" modified="2024-06-21T23:10:33.913Z" agent="Mozilla/5.0 (Windows NT 10.0; Win64; x64) AppleWebKit/537.36 (KHTML, like Gecko) Chrome/126.0.0.0 Safari/537.36" etag="sqXVsKouOJ216Ky4M4Mu" version="24.6.0" type="device">
  <diagram name="Page-1" id="e7e014a7-5840-1c2e-5031-d8a46d1fe8dd">
    <mxGraphModel dx="1173" dy="695" grid="1" gridSize="10" guides="1" tooltips="1" connect="1" arrows="1" fold="1" page="1" pageScale="1" pageWidth="1169" pageHeight="826" background="none" math="0" shadow="0">
      <root>
        <mxCell id="0" />
        <mxCell id="1" parent="0" />
        <mxCell id="20" value="" style="endArrow=open;strokeColor=#FF0000;endFill=1;rounded=0;exitX=0.5;exitY=1;exitDx=0;exitDy=0;entryX=0.5;entryY=0;entryDx=0;entryDy=0;" parent="1" source="zscKiEwWfd5TCdISiovu-51" target="zscKiEwWfd5TCdISiovu-61" edge="1">
          <mxGeometry relative="1" as="geometry">
            <mxPoint x="299.03543307086625" y="580" as="sourcePoint" />
            <mxPoint x="465.464566929134" y="503" as="targetPoint" />
          </mxGeometry>
        </mxCell>
        <mxCell id="zscKiEwWfd5TCdISiovu-48" value="" style="ellipse;shape=startState;fillColor=#000000;strokeColor=#ff0000;" vertex="1" parent="1">
          <mxGeometry x="264.5" y="80" width="30" height="30" as="geometry" />
        </mxCell>
        <mxCell id="zscKiEwWfd5TCdISiovu-49" value="ler etapa tutorial" style="" vertex="1" parent="1">
          <mxGeometry x="184.5" y="320" width="110" height="50" as="geometry" />
        </mxCell>
        <mxCell id="zscKiEwWfd5TCdISiovu-50" value="" style="endArrow=open;strokeColor=#FF0000;endFill=1;rounded=0;exitX=0;exitY=0.5;exitDx=0;exitDy=0;" edge="1" parent="1" source="zscKiEwWfd5TCdISiovu-53" target="zscKiEwWfd5TCdISiovu-49">
          <mxGeometry relative="1" as="geometry">
            <mxPoint x="280.5576923076924" y="400" as="sourcePoint" />
          </mxGeometry>
        </mxCell>
        <mxCell id="zscKiEwWfd5TCdISiovu-51" value="executar tarefa" style="" vertex="1" parent="1">
          <mxGeometry x="184.5" y="413" width="110" height="50" as="geometry" />
        </mxCell>
        <mxCell id="zscKiEwWfd5TCdISiovu-52" value="" style="endArrow=open;strokeColor=#FF0000;endFill=1;rounded=0" edge="1" parent="1" source="zscKiEwWfd5TCdISiovu-49" target="zscKiEwWfd5TCdISiovu-51">
          <mxGeometry relative="1" as="geometry" />
        </mxCell>
        <mxCell id="zscKiEwWfd5TCdISiovu-53" value="pular tutorial" style="rhombus;fillColor=#ffffc0;strokeColor=#ff0000;" vertex="1" parent="1">
          <mxGeometry x="240" y="240" width="80" height="40" as="geometry" />
        </mxCell>
        <mxCell id="zscKiEwWfd5TCdISiovu-54" value="ler painel &#xa;de tutorial" style="" vertex="1" parent="1">
          <mxGeometry x="224.5" y="150" width="110" height="50" as="geometry" />
        </mxCell>
        <mxCell id="zscKiEwWfd5TCdISiovu-55" value="" style="edgeStyle=elbowEdgeStyle;elbow=horizontal;verticalAlign=bottom;endArrow=open;endSize=8;strokeColor=#FF0000;endFill=1;rounded=0;entryX=0.5;entryY=0;entryDx=0;entryDy=0;exitX=0.5;exitY=1;exitDx=0;exitDy=0;" edge="1" parent="1" source="zscKiEwWfd5TCdISiovu-48" target="zscKiEwWfd5TCdISiovu-54">
          <mxGeometry x="-64.5" y="-88" as="geometry">
            <mxPoint x="289.5" y="410" as="targetPoint" />
            <mxPoint x="290" y="320" as="sourcePoint" />
          </mxGeometry>
        </mxCell>
        <mxCell id="zscKiEwWfd5TCdISiovu-56" value="" style="ellipse;shape=endState;fillColor=#000000;strokeColor=#ff0000" vertex="1" parent="1">
          <mxGeometry x="224.5" y="660" width="30" height="30" as="geometry" />
        </mxCell>
        <mxCell id="zscKiEwWfd5TCdISiovu-57" value="" style="edgeStyle=elbowEdgeStyle;elbow=horizontal;verticalAlign=bottom;endArrow=open;endSize=8;strokeColor=#FF0000;endFill=1;rounded=0;exitX=1;exitY=0.5;exitDx=0;exitDy=0;entryX=1;entryY=0.5;entryDx=0;entryDy=0;" edge="1" parent="1" target="zscKiEwWfd5TCdISiovu-56">
          <mxGeometry x="100" y="40" as="geometry">
            <mxPoint x="360" y="630" as="targetPoint" />
            <mxPoint x="320" y="261.25" as="sourcePoint" />
            <Array as="points">
              <mxPoint x="450" y="603.75" />
              <mxPoint x="400" y="653.75" />
            </Array>
          </mxGeometry>
        </mxCell>
        <mxCell id="zscKiEwWfd5TCdISiovu-58" value="" style="edgeStyle=elbowEdgeStyle;elbow=horizontal;verticalAlign=bottom;endArrow=open;endSize=8;strokeColor=#FF0000;endFill=1;rounded=0;entryX=0.5;entryY=0;entryDx=0;entryDy=0;exitX=0.5;exitY=1;exitDx=0;exitDy=0;" edge="1" parent="1" source="zscKiEwWfd5TCdISiovu-54" target="zscKiEwWfd5TCdISiovu-53">
          <mxGeometry x="100" y="40" as="geometry">
            <mxPoint x="279.5" y="400" as="targetPoint" />
            <mxPoint x="280" y="330" as="sourcePoint" />
          </mxGeometry>
        </mxCell>
        <mxCell id="zscKiEwWfd5TCdISiovu-61" value="terminou tutorial" style="rhombus;fillColor=#ffffc0;strokeColor=#ff0000;" vertex="1" parent="1">
          <mxGeometry x="199.5" y="500" width="80" height="40" as="geometry" />
        </mxCell>
        <mxCell id="zscKiEwWfd5TCdISiovu-62" value="" style="endArrow=open;strokeColor=#FF0000;endFill=1;rounded=0;entryX=0;entryY=0.25;entryDx=0;entryDy=0;exitX=0;exitY=0.5;exitDx=0;exitDy=0;" edge="1" parent="1" source="zscKiEwWfd5TCdISiovu-61" target="zscKiEwWfd5TCdISiovu-49">
          <mxGeometry relative="1" as="geometry">
            <mxPoint x="120" y="500" as="sourcePoint" />
            <mxPoint x="89.5" y="560" as="targetPoint" />
            <Array as="points">
              <mxPoint x="120" y="520" />
              <mxPoint x="120" y="430" />
              <mxPoint x="120" y="333" />
            </Array>
          </mxGeometry>
        </mxCell>
        <mxCell id="zscKiEwWfd5TCdISiovu-67" value="ler mensagem &#xa;de parabenização" style="" vertex="1" parent="1">
          <mxGeometry x="184.5" y="580" width="110" height="50" as="geometry" />
        </mxCell>
        <mxCell id="zscKiEwWfd5TCdISiovu-68" value="" style="endArrow=open;strokeColor=#FF0000;endFill=1;rounded=0;entryX=0.5;entryY=0;entryDx=0;entryDy=0;exitX=0.5;exitY=1;exitDx=0;exitDy=0;" edge="1" parent="1" source="zscKiEwWfd5TCdISiovu-61" target="zscKiEwWfd5TCdISiovu-67">
          <mxGeometry relative="1" as="geometry">
            <mxPoint x="250" y="380" as="sourcePoint" />
            <mxPoint x="250" y="430" as="targetPoint" />
          </mxGeometry>
        </mxCell>
        <mxCell id="zscKiEwWfd5TCdISiovu-70" value="" style="endArrow=open;strokeColor=#FF0000;endFill=1;rounded=0;entryX=0.5;entryY=0;entryDx=0;entryDy=0;exitX=0.5;exitY=1;exitDx=0;exitDy=0;" edge="1" parent="1" source="zscKiEwWfd5TCdISiovu-67" target="zscKiEwWfd5TCdISiovu-56">
          <mxGeometry relative="1" as="geometry">
            <mxPoint x="260" y="390" as="sourcePoint" />
            <mxPoint x="260" y="440" as="targetPoint" />
          </mxGeometry>
        </mxCell>
        <mxCell id="zscKiEwWfd5TCdISiovu-72" value="&lt;font face=&quot;Helvetica&quot;&gt;Sim&lt;/font&gt;" style="text;html=1;align=center;verticalAlign=middle;whiteSpace=wrap;rounded=0;fontFamily=Architects Daughter;fontSource=https%3A%2F%2Ffonts.googleapis.com%2Fcss%3Ffamily%3DArchitects%2BDaughter;" vertex="1" parent="1">
          <mxGeometry x="300" y="230" width="90" height="30" as="geometry" />
        </mxCell>
        <mxCell id="zscKiEwWfd5TCdISiovu-73" value="&lt;font face=&quot;Helvetica&quot;&gt;Não&lt;/font&gt;" style="text;html=1;align=center;verticalAlign=middle;whiteSpace=wrap;rounded=0;fontFamily=Architects Daughter;fontSource=https%3A%2F%2Ffonts.googleapis.com%2Fcss%3Ffamily%3DArchitects%2BDaughter;" vertex="1" parent="1">
          <mxGeometry x="174.5" y="230" width="90" height="30" as="geometry" />
        </mxCell>
        <mxCell id="zscKiEwWfd5TCdISiovu-74" value="&lt;font face=&quot;Helvetica&quot;&gt;Sim&lt;/font&gt;" style="text;html=1;align=center;verticalAlign=middle;whiteSpace=wrap;rounded=0;fontFamily=Architects Daughter;fontSource=https%3A%2F%2Ffonts.googleapis.com%2Fcss%3Ffamily%3DArchitects%2BDaughter;" vertex="1" parent="1">
          <mxGeometry x="224.5" y="550" width="90" height="30" as="geometry" />
        </mxCell>
        <mxCell id="zscKiEwWfd5TCdISiovu-76" value="&lt;font face=&quot;Helvetica&quot;&gt;Não&lt;/font&gt;" style="text;html=1;align=center;verticalAlign=middle;whiteSpace=wrap;rounded=0;fontFamily=Architects Daughter;fontSource=https%3A%2F%2Ffonts.googleapis.com%2Fcss%3Ffamily%3DArchitects%2BDaughter;" vertex="1" parent="1">
          <mxGeometry x="120" y="490" width="90" height="30" as="geometry" />
        </mxCell>
      </root>
    </mxGraphModel>
  </diagram>
</mxfile>
